<?xml version="1.0" standalone="no"?>
<!DOCTYPE svg PUBLIC "-//W3C//DTD SVG 20010904//EN"
 "http://www.w3.org/TR/2001/REC-SVG-20010904/DTD/svg10.dtd">
<svg version="1.0" xmlns="http://www.w3.org/2000/svg"
 width="500.000000pt" height="500.000000pt" viewBox="0 0 500.000000 500.000000"
 preserveAspectRatio="xMidYMid meet">
<metadata>
Created by potrace 1.14, written by Peter Selinger 2001-2017
</metadata>
<g transform="translate(0.000000,500.000000) scale(0.100000,-0.100000)"
fill="#000000" stroke="none">
<path d="M2160 4656 c-30 -13 -60 -42 -52 -50 3 -3 0 -6 -7 -6 -7 0 -9 -4 -6
-10 3 -5 3 -10 -2 -10 -4 0 -8 -11 -8 -25 0 -14 3 -25 8 -25 4 0 7 -6 7 -14 0
-11 34 -35 35 -24 0 2 8 -4 17 -12 11 -10 13 -19 6 -27 -5 -7 -7 -17 -3 -23 3
-5 -1 -13 -9 -16 -10 -4 -14 -15 -12 -30 3 -13 2 -24 -2 -24 -4 0 -8 -17 -10
-38 -1 -20 -4 -46 -7 -57 -2 -11 -4 -23 -4 -27 -1 -5 -16 -8 -34 -8 -19 0 -37
-3 -41 -7 -4 -5 -13 -8 -19 -8 -7 -1 -11 -6 -10 -13 2 -7 -4 -9 -15 -5 -9 3
-14 2 -10 -2 5 -5 0 -14 -10 -21 -25 -17 -27 -76 -3 -98 17 -15 109 -38 122
-30 4 2 9 -5 12 -16 3 -13 1 -18 -5 -13 -7 4 -8 1 -3 -7 5 -7 9 -43 11 -79 2
-60 11 -160 17 -203 2 -10 6 -20 9 -24 4 -3 4 -17 2 -30 -2 -13 -1 -24 4 -24
4 0 9 -11 10 -25 1 -16 -3 -25 -13 -25 -18 0 -57 -20 -67 -35 -4 -5 -8 -6 -8
-1 0 5 -6 3 -13 -3 -9 -6 -13 -29 -12 -56 1 -25 -3 -45 -7 -45 -5 0 -6 -4 -3
-10 3 -6 -1 -7 -9 -4 -9 3 -16 1 -16 -5 0 -6 -5 -11 -11 -11 -7 0 -32 -16 -55
-36 -24 -19 -44 -33 -44 -30 0 2 -17 -12 -39 -32 -21 -20 -57 -54 -80 -74 -23
-21 -38 -38 -34 -38 4 0 -3 -7 -15 -16 -12 -8 -22 -21 -22 -28 0 -8 -7 -16
-15 -20 -8 -3 -15 -13 -15 -22 0 -10 -3 -14 -7 -11 -3 4 -11 -3 -18 -16 -6
-12 -23 -43 -38 -69 -15 -27 -23 -48 -19 -48 4 0 -1 -5 -11 -11 -9 -6 -15 -14
-12 -20 4 -5 1 -9 -4 -9 -6 0 -14 -18 -17 -40 -4 -22 -10 -37 -15 -34 -8 5
-14 -17 -10 -38 0 -5 -5 -8 -13 -8 -7 0 -19 -7 -26 -15 -7 -9 -15 -13 -17 -11
-8 7 -42 -27 -37 -36 3 -4 -2 -8 -10 -8 -9 0 -16 -7 -16 -15 0 -8 -5 -15 -11
-15 -6 0 -8 -7 -5 -16 3 -8 2 -12 -4 -9 -8 5 -13 -15 -9 -41 0 -4 -5 -11 -13
-15 -7 -5 -8 -9 -2 -9 6 0 11 -12 11 -27 1 -67 4 -84 13 -78 6 3 10 -1 10 -10
0 -8 7 -18 15 -21 8 -4 13 -10 10 -14 -3 -4 1 -10 8 -13 9 -3 12 -19 10 -49
-8 -103 -7 -128 2 -128 6 0 6 -3 0 -8 -11 -7 -13 -39 -5 -57 3 -5 5 -40 5 -77
0 -38 2 -68 6 -68 3 0 6 -16 7 -35 1 -19 6 -44 12 -55 6 -11 8 -20 5 -20 -3 0
2 -17 10 -37 9 -21 16 -40 16 -43 1 -3 7 -20 15 -39 8 -18 14 -37 14 -42 0 -5
5 -9 10 -9 6 0 10 -3 9 -7 -2 -15 13 -53 21 -53 5 0 11 -8 14 -17 3 -10 19
-33 35 -52 17 -19 28 -38 25 -43 -3 -4 -1 -8 4 -8 15 0 71 -58 64 -66 -4 -4
-2 -4 4 -1 6 3 20 -1 30 -11 11 -9 26 -18 34 -20 8 -2 17 -7 20 -12 3 -5 18
-12 33 -15 15 -4 27 -11 27 -17 0 -5 4 -7 9 -3 15 9 24 -15 27 -72 2 -29 5
-57 8 -62 4 -5 2 -13 -4 -16 -8 -5 -8 -11 0 -20 10 -12 17 -69 10 -85 -6 -17
-7 -40 -2 -40 11 0 8 -424 -3 -432 -7 -5 -7 -8 0 -8 6 0 11 -24 11 -53 1 -28
4 -59 6 -67 12 -42 20 -60 29 -60 5 0 9 -7 9 -16 0 -8 4 -13 9 -9 5 3 12 -3
15 -13 8 -23 76 -58 143 -72 28 -6 97 -10 153 -8 l101 3 -3 -37 c-1 -20 -5
-35 -10 -32 -4 3 -8 2 -8 -3 0 -4 -15 -14 -32 -21 -18 -7 -41 -18 -52 -23 -14
-8 -16 -8 -10 3 6 10 4 10 -9 -1 -9 -7 -17 -11 -17 -8 0 12 -105 -46 -118 -65
-7 -10 -18 -15 -24 -12 -7 5 -9 1 -5 -9 3 -10 2 -17 -3 -17 -6 0 -10 -7 -10
-15 0 -8 -4 -15 -10 -15 -5 0 -10 -8 -10 -18 0 -10 -3 -22 -7 -26 -4 -3 -8
-14 -10 -24 -4 -23 -15 -96 -15 -102 -1 -30 3 -30 703 -30 559 0 700 3 693 13
-5 6 -9 26 -9 44 0 17 -2 30 -6 27 -4 -2 -12 18 -19 44 -15 52 -33 85 -67 120
-13 13 -23 27 -23 31 0 5 -13 14 -30 21 -16 7 -27 17 -23 23 3 5 1 7 -5 3 -6
-3 -13 -2 -17 4 -4 6 -11 8 -16 5 -5 -4 -9 -2 -9 2 0 5 -14 10 -32 11 -17 2
-38 8 -45 14 -10 8 -13 7 -13 -3 0 -9 -3 -10 -8 -3 -4 6 -27 14 -52 18 -95 16
-105 18 -109 21 -2 2 -6 25 -8 50 -5 37 -10 46 -29 51 -20 5 -22 9 -13 25 7
13 6 19 -1 19 -8 0 -8 6 0 20 8 15 8 20 -2 20 -8 0 -9 3 -3 8 14 10 15 82 1
82 -7 0 -7 3 -1 8 13 9 15 72 2 72 -5 0 -4 7 3 15 10 12 10 15 0 15 -10 0 -10
3 -1 14 9 11 9 16 0 21 -8 6 -7 10 2 16 8 5 9 9 3 9 -6 0 -11 12 -11 28 -1 15
-2 53 -3 85 -1 31 -6 57 -11 57 -5 0 -9 7 -9 16 0 9 5 12 12 8 7 -5 8 -3 2 7
-11 17 -14 33 -17 86 -1 23 -5 44 -8 47 -4 4 -5 21 -3 38 2 18 -1 35 -8 40
-10 6 -9 8 2 8 12 0 12 2 1 9 -7 5 -15 29 -17 55 -2 25 -8 55 -14 66 -8 15 -8
20 2 20 10 0 10 2 0 9 -15 9 -6 61 10 61 5 0 7 4 3 9 -3 5 4 12 15 16 11 3 20
13 20 21 0 8 5 12 10 9 11 -7 160 64 160 76 0 4 10 9 23 13 12 3 34 17 49 31
15 14 32 25 38 25 6 0 8 5 5 10 -3 6 -1 10 5 10 6 0 16 5 23 10 51 43 133 118
146 134 9 10 28 32 44 48 15 17 27 36 27 43 0 7 7 16 16 19 8 3 13 10 9 15 -3
5 -1 12 5 16 5 3 10 15 10 26 0 10 4 19 9 19 10 0 25 68 25 108 0 12 3 22 6
22 3 0 7 19 9 42 1 23 7 46 14 50 9 6 8 8 -3 8 -10 0 -11 3 -4 8 24 16 27 527
3 557 -4 6 -8 20 -8 30 0 11 -2 34 -5 50 -3 17 -7 46 -8 65 -2 19 -6 37 -10
40 -4 3 -8 17 -10 32 -2 15 -7 30 -11 34 -4 4 -7 18 -7 31 0 13 -5 23 -11 23
-5 0 -8 4 -5 9 3 4 -1 16 -8 27 -8 10 -12 24 -9 31 3 7 0 13 -6 13 -6 0 -11 9
-11 20 0 11 -4 20 -9 20 -6 0 -8 9 -6 20 2 12 0 18 -6 15 -5 -4 -15 7 -22 24
-7 17 -16 29 -19 26 -3 -3 -8 6 -12 20 -4 14 -11 25 -16 25 -6 0 -10 8 -10 17
0 9 -3 13 -7 10 -3 -4 -15 5 -25 20 -10 16 -18 25 -18 20 0 -4 -14 5 -31 20
-17 16 -36 27 -41 25 -4 -1 -11 5 -14 13 -3 8 -10 12 -15 9 -5 -3 -9 0 -9 5 0
6 -9 11 -19 11 -11 0 -21 5 -23 10 -2 6 -13 12 -26 13 -12 0 -22 5 -22 9 0 4
-3 7 -7 7 -17 -4 -94 14 -99 22 -3 5 -16 9 -30 9 -14 0 -35 5 -46 11 -16 9
-19 8 -12 -3 6 -10 5 -11 -7 -2 -8 6 -23 10 -34 8 -10 -1 -26 3 -34 9 -12 9
-13 9 -7 0 4 -7 2 -13 -3 -13 -6 0 -11 4 -11 8 0 4 -10 8 -22 9 -13 0 -39 1
-58 3 -67 4 -131 0 -126 -9 7 -11 -13 -9 -33 3 -10 6 -12 5 -7 -2 4 -7 1 -12
-9 -12 -9 0 -13 4 -10 10 4 6 -2 7 -18 1 -17 -7 -29 -6 -37 2 -10 9 -11 9 -6
0 4 -7 2 -13 -3 -13 -6 0 -11 5 -11 10 0 6 -6 10 -14 10 -15 0 -39 54 -29 64
4 3 2 6 -4 6 -6 0 -14 20 -17 45 -4 24 -11 47 -17 50 -5 4 -7 11 -3 16 3 5 -2
21 -11 36 -10 14 -12 22 -4 18 9 -6 10 -4 3 6 -5 8 -9 16 -10 19 0 3 -4 24 -9
48 -4 23 -12 45 -16 48 -5 3 -9 19 -9 35 0 21 4 28 12 23 7 -5 9 -2 5 8 -4 12
-1 14 13 11 25 -7 90 34 90 56 0 9 6 23 12 29 9 9 10 15 2 20 -6 4 -13 15 -17
25 -3 9 -13 17 -22 17 -8 0 -15 5 -15 10 0 6 -12 10 -26 10 -14 0 -23 4 -19
10 4 6 -9 10 -30 10 -29 0 -36 3 -32 15 4 8 2 17 -4 20 -5 4 -7 10 -4 15 2 4
6 28 6 54 1 25 7 46 13 46 6 0 4 5 -4 10 -9 6 -10 10 -3 10 6 0 10 9 8 19 -3
19 19 36 34 26 5 -2 18 7 31 20 34 37 33 105 -3 143 -15 16 -33 29 -40 29 -6
1 -26 3 -42 6 -17 2 -42 -1 -55 -7z m120 -444 c14 -2 42 -15 62 -29 l38 -25
-23 -29 c-12 -15 -28 -28 -34 -28 -7 -1 -13 -5 -13 -9 0 -5 -14 -9 -30 -10
-21 0 -33 6 -41 20 -8 16 -8 19 1 13 9 -5 10 -2 3 11 -5 11 -8 29 -7 42 0 12
-3 25 -7 28 -5 3 -3 11 4 18 6 8 14 11 17 7 3 -3 16 -7 30 -9z m-175 -58 c1
-80 -7 -95 -49 -91 -19 1 -32 5 -30 8 2 4 -10 9 -26 13 -28 5 -32 12 -32 51 0
30 2 36 12 30 6 -3 10 -1 10 4 0 6 7 11 15 11 8 0 15 4 15 9 0 11 48 29 70 26
11 -1 15 -16 15 -61z"/>
</g>
</svg>
